<svg width="401" height="399" viewBox="0 0 401 399" fill="none" xmlns="http://www.w3.org/2000/svg">
<path fill-rule="evenodd" clip-rule="evenodd" d="M400.315 220.486L301.967 220.486C301.967 220.582 301.967 220.678 301.967 220.774C301.967 264.767 266.304 300.43 222.311 300.43C222.215 300.43 222.119 300.43 222.023 300.43V398.778C222.119 398.778 222.215 398.778 222.311 398.778C320.62 398.778 400.315 319.083 400.315 220.774C400.315 220.678 400.315 220.582 400.315 220.486Z" fill="black"/>
<path fill-rule="evenodd" clip-rule="evenodd" d="M178.45 0.931641C80.0676 0.931641 0.3125 80.6867 0.3125 179.07C0.3125 277.452 80.0676 357.207 178.45 357.207C276.833 357.207 356.588 277.452 356.588 179.07C356.588 80.6867 276.833 0.931641 178.45 0.931641ZM178.45 99.3536C134.424 99.3536 98.7344 135.044 98.7344 179.07C98.7344 223.095 134.424 258.786 178.45 258.786C222.476 258.786 258.166 223.095 258.166 179.07C258.166 135.044 222.476 99.3536 178.45 99.3536ZM356.588 178.782H258.166C258.166 178.878 258.166 178.974 258.166 179.07C258.166 223.095 222.476 258.786 178.45 258.786C178.354 258.786 178.259 258.785 178.163 258.785V357.207C178.259 357.207 178.354 357.207 178.45 357.207C276.833 357.207 356.588 277.452 356.588 179.07C356.588 178.974 356.588 178.878 356.588 178.782Z" fill="black"/>
</svg>
